<?xml version="1.0" encoding="UTF-8"?>
<svg id="Layer_1" data-name="Layer 1" xmlns="http://www.w3.org/2000/svg" version="1.1" viewBox="0 0 591.84 42.48">
  <defs>
    <style>
      .cls-1 {
        fill: #262626;
        stroke-width: 0px;
      }
    </style>
  </defs>
  <path class="cls-1" d="M591.840027,34.50947c-.281067.070007-.521057-.145447-.877197-.001953-.567932.22876-1.243469.247864-1.873657.249084-.653564.001221-1.308716-.114441-1.960815-.19696-1.207336-.152771-2.44928-.174805-3.514771-.893433-.056335-.037964-.160156-.052429-.221985-.027832-.787598.312927-1.43335-.164917-2.138428-.350891-.71637-.189026-1.445557-.62207-2.180847-.359436-.456055.162903-.59906.063599-.873474-.248596-.565735-.643738-.677734-.659973-1.24646-.15094-.3349.299683-.534302.363647-.892883.048096-.393616-.346375-.42865-.301941-1.561035.060791-.044067.014099-.135803-.035522-.16748-.081543-.225647-.327271-.45697-.207947-.714478-.039917-.148621.097046-.356873.241455-.488403.201294-.48407-.147827-.857727-.174194-.983459.446289-.004944.024475-.271057.03009-.397766-.01062-.337646-.108643-.734558-.170288-.98175-.391479-.412048-.368652-.50824.379578-.894348.15979-.290527-.165344-.693237-.197876-1.041748-.184021-.798035.031677-1.402527-.663269-2.252686-.523132-.268677.044312-.501343.156555-.736328.18457-.275635.032959-.57373-.228455-.873779-.264404-.306885-.036682-.627319.054565-.94281.07312-.774963.045654-1.496887.580933-2.319641.252441-.046753-.018677-.266235.19397-.248779.252197.0625.209534.116028.392883-.141296.472229-.032471.01001-.140747-.211731-.207214-.329834-.057739-.102417-.086609-.228027-.163269-.311035-.103882-.112488-.24115-.194092-.364136-.28894-.010071.138916-.046936.282043-.025635.415955.092957.583496.098145.58728-.460144.483215-.506287-.094421-1.116211-.058716-1.489319-.336792-.494019-.368103-.952576-.227356-1.438477-.247437-.037476-.001526-.077515-.02356-.110229-.045349-.558044-.372009-1.181641-.403931-1.828186-.403076-.308411.000366-.618286-.132812-.92511-.214844-.3302-.088257-.202881-.231873-.048218-.391968.047607-.049194.049927-.142273.072876-.215271-.104492-.013916-.220154-.063782-.311584-.035461-.382629.118652-.707275.586731-1.173035.160583-.099609-.091125-1.128967-.177979-1.263611-.175659-.136658.002258-.293518-.008789-.407898-.073547-.448303-.253784-.923218-.484192-1.310425-.814514-.302612-.258179-.727966-.181091-.970093-.419189-.783081-.769836-1.026611-.798035-1.888672.035767-.169434.163879-.236023.124023-.35437.010315-.05658-.054443-.097778-.124512-.148865-.18512-.142395-.169067-.278503-.46936-.431274-.478394-.351013-.020752-.194153.342285-.271912.539246-.099792.252197-.240051.488403-.362793.731445-.50177-.375549-.871216.140503-1.308716.184204-.138977.013916-.392883-.075684-.421509-.170227-.220032-.72699-.432007-.907043-.862854-.105713-.078796.146545-.522339.186707-.768921.13623-.676514-.13855-1.425293-.215637-1.980469-.573242-.551392-.355103-.986938.007751-1.464966-.06842-.049011-.007812-.194031.174744-.180359.24762.171631.919067-.715576.112122-.843933.52478-.08313-.136719-.189453-.264709-.244934-.411865-.187866-.498047-.326294-.360779-.45636.024719-.081543.241638-.221924.208435-.296936.026123-.064026-.155823-.022644-.351685-.056213-.524353-.023254-.119751-.129456-.333374-.13916-.330078-.623169.211914-1.239014.228699-1.853638-.026367-.589722.457947-1.16687.057251-1.696228-.102417-.64386-.194214-1.192505-.098328-1.583618.353271-.343628.396729-.568176.305237-.890991.068176-.191833-.140808-.468018-.21228-.588867-.393372-.170349-.255127-.779175-.265686-.483521-.796387-.385193-.15918-.79303-.280457-1.147034-.491882-.209778-.125366-.314697-.274719-.599304-.108093-.469543.275024-.90509.188721-1.236694-.294006-.072144-.104919-.241394-.180359-.375732-.199036-.586548-.081482-1.175354-.155579-1.765869-.196594-.537109-.037231-1.123474-.201721-1.442444.491943-.053772.117126-.341309.169922-.522888.174805-.257751.006897-.539856-.007568-.768921-.109192-.170715-.075806-.279724-.441406-.405945-.436035-.272583.011536.170837.589111-.337646.553528-.158203-.011047-.320496-.005493-.473389-.040649-.191162-.043945-.370911-.137695-.562012-.182495-.559326-.131042-1.16571-.12915-1.393433-.861328-.062744-.202148-.433533-.313171-.673889-.44635-.018494-.010254-.117615.1427-.190796.206543-.044617.038879-.123596.086731-.16626.071594-.252747-.089478-.504333-.185669-.746277-.30072-.171326-.081543-.326721-.196533-.489258-.296631-.02478.165894-.023743.342468-.085999.492859-.028015.067566-.197449.135925-.277405.113586-.995056-.278137-1.99353-.485657-3.040405-.454956-.227356.006653-.457825-.266357-.696289-.3927-.119446-.063293-.361572-.144287-.37616-.118774-.198669.347412-.395081.244202-.474854-.036255-.10907-.383545-.450378-.422424-.708984-.566345-.24823-.138123-.567627-.150269-.812317-.29248-.207642-.120667-.253784-.519104-.647034-.274414-.233154.145203-.687256.140869-.751648.312622-.179321.478271-.425964.350098-.744385.23877-.615051-.215088-1.199951-.567688-1.893616-.456238-.130676.020996-.37384.073547-.372437.082825.128113.860413-.331482.429504-.682312.340027-.165405-.042236-.47699.002258-.536072.109802-.357361.650757-.956299.086365-1.382874.314087-.021362-.085876-.085449-.190735-.057129-.2547.233276-.526611-.206543-.491943-.396484-.372864-.400085.250671-.684387.289673-.935608-.151184-.092896.073059-.250488.134705-.265747.221436-.036682.208313-.091553.303772-.266968.128906-.150391-.149902-.426086-.23877-.291626-.561218.104614-.251038.01355-.387817-.27594-.292236-.696411.22998-.690063.227722-1.110596-.33075-.082031-.108887-.223572-.233521-.344421-.240967-.320312-.019653-.536011-.112427-.59137-.460144-.006836-.042786-.188538-.09729-.189209-.095886-.344666.6828-1.26825.852844-1.429688,1.748535-.109375.607361-.234558.576416-1.02533.514526-.122009-.009583-.29248.064026-.370728.157532-.117065.139954-.169495.477234-.253967.47876-.811829.014771-1.451721,1.118774-2.395935.372131-.124573-.098511-.445251.081238-.674255.07782-.42688-.006409-.853088-.052795-1.279541-.08252-.136475-.74585-.46582-.384827-.709656-.095886-.134766.159729-.211731.108276-.373169.101807-.471375-.018982-.831604.248108-1.348328.438049-.556885.204712-.926636.893982-1.659546.659363-.071228-.022766-.196045.106934-.290466.173645-.651306.459961-1.427673.321106-2.078369.2005-.69165-.128174-1.323364-.019897-1.811646.278198-.609314.372009-1.049377.427185-1.568298-.029297-.173279-.152405-.31366-.175598-.477844.050476-.505432.696045-1.34259.723572-1.920715.43927-.667542-.328308-1.16095-.230774-1.775757-.040833-.616577.19043-1.287598.342102-1.866333-.122681-.75293-.604675-1.684143.287598-2.424744-.318481-.625305.29834-1.261963.5755-1.871826.90271-.379456.203613-.829468.409729-1.050232.744873-.357178.542236-1.255493.350159-1.387268,1.119629-.007874.045837-.132507.121582-.152832.108154-.621582-.413025-.922852.263733-1.382141.391541-.202454.056335-.429443.026855-.645386.031799-.143494.003296-.363708-.061707-.418152.007385-.311218.395142-.478577.113892-.733215-.072937-.162109-.118896-.54303-.198181-.634277-.105896-.25824.261353-.375427.756409-.836548.233276-.073547.104126-.176941.198364-.21521.314209-.114258.345764-.354492.647339-.668823.380066-.42804-.364014-.799255-.234192-1.267029-.197754-.62323.048584-1.2724.381409-1.907654-.00116-.069946-.042114-.286072.005188-.304688.057251-.089722.25177-.05365.615784-.218445.755066-.174988.147827-.526001.085571-.799133.12262-.023804.003235-.049622.060425-.058411.096497-.11969.493225-.379089.403625-.69696.184937-.198547-.136719-.438293-.268311-.567444.08313-.067017.182678.028381.580322-.325745.129333-.104431-.132996-.445618-.133789-.668335-.108215-.39447.045349-.703491.572937-1.177307.209106-.317566.262207-.629395.532166-.957642.780273-.067932.051331-.210022.05542-.295776.022888-.312195-.118225-.39386.078735-.312988.283264.241943.612-.078064.408081-.397827.327393-.10321-.026062-.367676.139587-.362915.202881.043152.574829-.315002.868652-.669861,1.235657-.137756.142517-.216919.399109-.449097.415771-.347961.024902-.739685.074402-1.043823-.052185-.713806-.29718-1.000916-.454224-1.496582-.393799-.589722.071777-1.008789-.157715-1.328369-.618652-.158569-.22876-.282104-.481873-.441223-.710205-.063293-.09082-.179932-.144409-.272278-.214905-.032898.106384-.096924.213806-.093384.31897.014526.430176-.085815.609192-.606262.623352-.390808.010681-.699768.540771-1.20282.454102-.332886.613892-.890076.885498-1.523193,1.121948-.4198.156677-.738159.491455-1.241394.177307-.318848-.199036-.705078-.178528-.940247.200562-.23053.371643-.562134.287231-.839111.156372-.348633-.164795-.664978-.406616-.972229-.644897-.090881-.070496-.104004-.241211-.152771-.365967-.148254.106018-.33728.1828-.437744.322998-.447083.624023-1.065125.759949-1.768738.657959-.139099-.020203-.34259-.093079-.384644-.19574-.141785-.345581-.336975-.225403-.569641-.140747-.139587.050781-.345154.101196-.447266.036072-.212952-.135742-.376953-.348328-.561096-.529297-.119995.236816-.144653.508972-.492126.614014-.274292.082947-.323914.006409-.415833-.201721-.03949-.089539-.283264-.189758-.293091-.177002-.573975.749573-1.156128.173035-1.662354-.048157-.481384-.210388-1.079529-.551453-1.236145-.349365-.379089.489197-.693665.168457-1.049744.054932-.302856-.096558-.614929-.163818-.921387-.249329-.607849-.169617-1.329224-.097168-1.699951-.789062-.007751-.014465-.226013.042297-.227661.07251-.024414.436646-.187439.347656-.514648.234619-.308777-.106628-.726501.083313-.874512-.391235-.38324.06842-.785095.085938-1.144958.217896-.458374.167969-.838074.162354-1.200623-.186218-.072083-.069336-.211609-.116272-.310242-.102661-.877075.121155-1.54248-.449036-2.299927-.708069-.168762-.057739-.250061-.278687-.472107-.061707-.46283.452271-.925232.334595-1.378113-.045593-.288818-.242432-.514038-.268677-.912415-.034973-.575134.337341-2.522827.431763-3.276489.365601-.118103-.010376-.261169-.055603-.351807-.007568-.556152.294312-1.100403.424622-1.648071-.00885-.394043.261536-.697388.011658-1.061096-.121094-.298828-.10907-.746887-.0979-1.01416.057373-.500732.290955-.95636.369202-1.461426.108398-.300903-.155334-.533142-.06665-.753174.147217-.140991.136963-.287048.268738-.430725.402832-.137939-.18158-.270996-.367249-.416077-.54303-.067993-.082336-.190308-.223389-.235168-.205505-.482361.192261-.818054-.150085-1.213318-.286133-.110413-.038025-.323364.041321-.407715.138-.464844.532654-1.020752.371704-1.629578.397705-.860413.036682-1.624023-1.213928-2.521667-.180359-.023621.027161-.146851-.030762-.223083-.051025-.38147-.101379-.757141-.25061-1.145142-.296936-1.542603-.184326-2.898682-.992981-4.416565-1.286743-.566284-.109619-1.123047-.307312-1.71228-.399109-.364624-.056824-.626709-.425171-.98053.100403-.184509.274048-.525757.136353-.943054-.218811-.054382-.046204-.137817-.09668-.200439-.088562-.346252.0448-.698853.077209-1.03241.172852-.267334.07666-.587463.697876-.696533-.133362-.006775-.052124-.425842-.116516-.618958-.059509-.197632.058411-.35553.380249-.526794.376953-.806885-.015503-1.654968.015625-2.324646-.536682-.299316-.246887-.586487-.271484-.943298-.337769-.733337-.13623-1.480469.192932-2.203735-.176514-.512024-.261536-1.036438-.447632-1.700012-.275085-.54071.140625-1.111328-.432434-1.736572-.283264-.213074.050842-.409912.166809-.617798.243164-.08667.031799-.256775.06842-.263855.051331-.283752-.689148-.597778-.339722-1.024475-.119141-.262329.13562-.684204-.036133-1.034241-.072021-.26825-.027527-.559082-.138-.798706-.06897-.346863.099915-.489502.000061-.636719-.290894-.116577-.230469-.294495-.325562-.576233-.124634-.378113.269653-.799927.480103-1.212952.696899-.078186.041016-.216675.022156-.303955-.018921-.366455-.172485-.698914-.606812-1.132141-.110779-.014771.016846-.093567.009399-.110657-.012085-.446411-.56134-.743591-.093811-.976746.193604-.224182.276367-.211365.231445-.442261-.015991-.26532-.284302-.71875-.538757-1.082092.015259-.057007.086914-.253113.08728-.387085.118347-.409119.094849-.835754.142822-1.223206.292725-.240906.093201-.413452.167114-.657532.020142-.108887-.065552-.362-.070129-.431213.005737-.525024.575256-.97406.285278-1.439392-.074829-.105469-.081665-.302551-.197937-.365417-.156982-.415894.270935-.874695.171082-1.314941.238037-.357056.05426-.636047.188416-.999512-.04834-.291809-.190125-.878113-.127441-.993408-.351807-.341125-.664062-.476074-.21637-.704285.031738-.187561.203979-.37384.437256-.611084.560425-.298828.155151-.766724.394958-.953796.27478-.48114-.309204-1.006287-.173828-1.445435-.325134-.489319-.168579-.826904.721436-1.252991.07074-.003723-.005615-.172119.054016-.184082.102722-.170776.695435-.819397.397095-1.128967.385193-.776672-.029968-1.541199-.58136-2.320435.047852-.061157.049438-.225647-.033997-.343018-.048096-.233704-.028015-.487427-.115723-.695557-.053711-.149353.044434-.209473.335327-.362183.436646-.149902.099365-.406616.188904-.547485.126709-1.152039-.50885-2.0625.638428-3.159363.434326-.239075.561157-.495361.463379-.894958.107483-.242188-.215637-.64209-.271179-.982544-.349182-.106995-.024536-.353882.10199-.360779.175842-.041382.441467-.32196.46106-.665283.479553-.304932.016418-.608826.160828-.907349.144043-.139771-.007874-.2453-.339966-.403992-.381714-.138428-.036316-.423767.238342-.48291.187561-.505432-.43335-1.045288-.033752-1.503296-.109619-.75354-.124817-1.382629.102966-2.066895.208923-.239319.037048-.505798-.134644-.76532-.180054-.127502-.022278-.357849-.015442-.387512.049072-.246887.536804-.675232.295959-.892639.109436-.306213-.262695-.483948-.222656-.825195-.089355-.406982.158997-.904297.129089-1.181824-.309875-.190674-.301575-.226868-.270081-.580139-.125244-.513245.210388-1.21283-.021545-1.537659-.48999-.230164-.331909-.209717-.261902-.546021-.164246-.484497.140747-1.03125-.110901-1.378723-.523132-.434082-.514954-.399963-.526245-.902649-.263123-.191284.100098-.516357.251343-.614441.172546-.59729-.479858-1.436462-.278564-2.029358-.795349-.309631-.269897-.766113-.377441-1.164856-.536865-.299377-.11969-.497131-.093872-.598206.309753-.198486.79248-.272156.728271-1.11438.704712-.593994-.016663-1.113647-.19751-1.667603-.306274-.426453-.083679-.51062-.248474-.723389-.563232-.221252-.327148-.538208-.79126-1.251038-.535767-.457581.164062-.927368.295959-1.37146.524597-.245117.126221-.580444.214355-.447998-.312134.058838-.233704-.00885-.416748-.303101-.271057-.210571.104309-.396423.332642-.606079.349731-.483459.039368-.84314.205139-1.241089.508484-.377808.288025-.982605.818359-1.423767-.052734-.036133-.071411-.273376-.134705-.297302-.10498-.572388.709167-1.604858-.312744-2.127686.566162-.024841.041748-.188904.062622-.220154.029358-.521118-.554382-.900085.036987-1.337219.153625-.184326.049255-.424072.163025-.554016.092224-.361572-.196899-.655579-.05304-.871094.160034-.314636.310974-.594482.160645-.942505.132446-.436279-.035339-1.107788-.471924-1.277588.420105-.01123.058899-.146606.15033-.150757.146484-.480896-.44104-1.04248-.04187-1.565613-.138672-.505615-.093506-1.061951.011108-1.581116.108276-.178833.033386-.32074.299744-.465576.471436-.24707.293152-.46991.138916-.736145.014221-.336182-.157532-.693176-.390991-1.039551.047668-.19281.244141-.412476.059692-.632385-.053162-.454041-.232971-.918274.103516-1.387085.041382-.028015-.003723.045898.485046-.316223.370972-.159973-.050354-.279114-.230469-.416748-.351685-.122925.192383-.18634.368774-.524963.229736-.956421-.392578-1.99823-.486328-3.008911-.521667-.508667-.017761-.740173-.79187-1.315369-.36969-.013306.009827-.139465-.085693-.167419-.151428-.324097-.762939-1.2948.029846-1.643372-.679993-.004761-.009644-.195251.032227-.202698.069397-.150696.749084-.698547.418213-1.096252.37677-.314087-.032715-.540405.035339-.752869.246704-.157593.156799-.276978.090149-.340515-.094971-.062073-.180664-.141968-.365112-.152832-.551514-.026001-.44397-.210999-.65918-.678955-.607605-.356262.039246-.720459.015198-1.073853.068176-.351257.052673-.854797.056091-1.005371.27655-.299561.438599-.65155.032532-.921082.203796-.064331.040833-.128357.103821-.159607.171753-.197754.430298-.508545.437317-.954407.429199-.454529-.008301-.770264.026123-.890015-.501526-.016968-.075134-.367126-.164246-.384216-.136536-.318726.516968-.711121.283142-1.082031.115173-.422546-.191406-.680664-.098511-1.029724.250427-.37738.377258-.866821.724182-1.546814.392822-.47052-.229248-1.140869-.307129-1.502258.131226-.607727.737305-1.559692.295349-2.20575.794861-.065125.050354-.257324.010925-.342773-.05188-.501099-.368164-.993958-.447083-1.52356-.05426-.062073.046082-.284485.008484-.301514-.038208-.11969-.327332-.281311-.289856-.542603-.148743-.22998.124329-.500854.199585-.761841.233582-.441162.057373-.85376.09906-1.110474.555542-.070068.124512-.395203.243286-.506714.183777-.588013-.313721-1.076538.455505-1.643616.115967-.036743.071716-.121033.160278-.102478.212402.121216.341248-.059326.441956-.34198.428345-.273926-.013245-.556763-.03363-.816467-.113525-.710022-.218445-1.430786-.423035-2.106567-.724548-.45459-.20282-.815308-.440186-1.27002.003418-.113831.111084-.448669.047241-.661682-.010681-.179321-.048767-.385742-.335388-.482788-.293091-.522034.227356-.987366-.514832-1.307068-.22052-.608826.560425-.685974-.34668-1.136169-.276733-.694031.107849-1.327209-.499878-2.077759-.323792-.103149.02417-.241943-.180542-.381042-.220093-.757996-.215454-1.52124-.412292-2.282654-.61554-.346924.486084-.875183.215698-1.293396.237183-.448486.02301-.969788-.486877-1.205566.325317-.011414.039368-.149048.080994-.208191.061523-.576111-.189697-1.212219.409119-1.77655-.150391-.095337-.094482-.379944.018616-.575012.00531-.992065-.06781-1.98761-.112976-2.972839-.237488-.349976-.04425-.453674.014526-.61731.322998-.209167.394409-.778381.49408-.975586.146362-.443481-.782043-.983765-.333008-1.506775-.262939-.219849.02948-.471008.153748-.652222.085999-.733276-.27417-1.228577-.244446-1.871948.175964-.119507.078125-.323608.165405-.421326.115784-.684326-.347534-1.277893.296631-1.945862.172607-.057739-.010742-.160828.366211-.502625.206787-.160645-.07489-.482239.099487-.686157.23053-.700745.450256-.69104.458313-1.38739.043457-.08136-.048462-.281677-.064514-.293518-.037415-.1922.440002-.31543.333679-.659607.073792-.301514-.2276-.841675-.308899-1.223999-.222595-.69751.15741-1.335144-.029236-1.955811-.200684-.433105-.119568-.765503-.382874-1.305725-.301453-.50885.076782-1.159485-.065002-1.587891-.350464-.598877-.39917-1.115479.114746-1.649597-.062866-.075378-.025024-.149841-.052856-.224304-.080444-.617493-.228882-1.190308-.633789-1.914368-.429321-.13269.037476-.306946-.066833-.460754-.110046-.698425-.19635-1.410889-.354309-2.090881-.60144-.881104-.320251-1.776917.115662-2.653015-.11554-.092529-.024414-.227356.059814-.326233.120361-.344666.211182-.659973.638184-1.088135.11438-.008606-.010559-.194641.089905-.26355.16864-.240845.275146-.466431.303833-.661011-.03064-.147461-.25354-.30072-.183105-.484985-.058228-.056763.038452-.142029.034912-.214233.050537-.068848-.449646-.237793-.442688-.519897-.135864-.042114.045776-.270081-.007935-.350464-.082214-.244629-.226196-.466919-.161926-.763733-.096741-.626038.137512-.992004.833679-1.701294.747925-.544495.732727-1.306091.635193-2.049011.493713-.285889-.054443-.467407-.129395-.734863.119568-.155762.144958-.765564-.048645-.802307.049011-.164551.436951-.487915.093567-.670898.209106-.453491.286316-.373657-.24939-.572571-.333496-.152954-.064575-.406006-.15033-.488586-.079651-.407227.348694-.866821.157837-1.302002.18927-.183655.013245-.520996-.032654-.530884.009155-.162476.688293-.770752.421143-1.118591.433167-.483765.016724-.910889-.01178-1.30896.329346-.127991.109741-.377869.077271-.57196.109802l-1.255127.574402c-.390137.383118-.842468.453796-1.286072.149719-.636658-.436401-1.323303-.606445-2.084534-.584229-.201111.005859-.347229-.22699-.619568.003662-.471985.399658-1.060181.502014-1.681091.32605-.40271-.114075-.582275-.015808-.656067.476929-.108459.723877-.417969.937317-1.082886.956421-.354797.010132-.783936.055237-1.051819-.115601-.463562-.295776-.728333-.372803-.968384.213257-.042053.102539-.360657.13031-.550415.127014-.704163-.012268-1.414429-.006897-2.108093-.107056-.225159-.032532-.377014-.442322-.61853-.53833-.153809-.061096-.272095.658875-.641113.146729-.420898.191162-.651184-.49115-1.125977-.214539-.665039.38739-1.377319.297058-2.079651.057922-.286682-.097656-.535583-.139221-.858765.033691-.487854.261047-.589417.203003-1.359863.076355-.103943-.01709-.309937.009766-.310303.021301-.024048.757202-.540283.230408-.814514.323914-.29071.099121-.712219-.011902-.785767.484924-.017273.11676-.252075.317627-.314636.293457-.609436-.235901-.803406.299866-1.164368.554871-.228455.161316-.578613.213013-.427185-.312195.010864-.037659-.223206-.217712-.280273-.191956-.542969.245544-1.074097.5177-1.605103.789124-.832458.425476-1.594421.624268-2.544312.099182-.782043-.432312-1.745667-.634521-2.680603-.185303-.12793.061523-.412109.026001-.482483-.069214-.139282-.188232-.236511-.20166-.324524-.017578-.198181.414734-.494812.285339-.798584.183594-.802368-.268921-1.634277-.255615-2.389465.127869-.302063.153381-.522522.105774-.779724-.025635-.894165-.457031-.871765-.387512-1.771667.062012-.537415.268433-1.218445.246826-1.617493.806824-.901855-.050781-1.753235.459106-2.696533.158936-.693604-.220764-1.413452-.466125-2.189453-.234497-.22345.066711-.667114-.694214-.704834.195068-.000183.005127-.289246.047241-.400635-.010559-.365906-.189819-.664856-.143738-.971375.12854-.347839.309082-.725891.271301-1.112854.037964-.103088-.062195-.314819-.109924-.373169-.054749-.48114.455078-1.038635.29425-1.583618.231384-.424194-.048889-.857849-.20105-1.266357-.147461-.393555.051636-.647461-.892883-1.082275-.126099-.265137-.6875-.730225-.133179-1.098938-.179382-.1521-.019043-.363342-.010681-.441101-.10376-.377502-.452026-.869446-.332764-1.332214-.294434-.392517.032532-.67572-.087097-.954834-.360779-.551941-.541199-.860107-.55835-1.745789-.233276-.143372.052612-.318542.063904-.470337.039856-.480347-.07605-.737854.175964-.721436.596985.020508.524963-.773743-.019531-.644104.550781-.154175.011841-.328003.074951-.458496.024963-.290771-.111267-.661011-.211731-.813293-.440247-.209351-.314209-.283691-.252991-.579407-.116394-.602844.278503-.731934.185425-1.057312-.435303-.272156-.519104-.59613-.639465-1.154663-.360718-.353516.176392-.72406.656433-.993103.594299-.562927-.130066-.826721.104858-1.053528.481873-.211426.351379-.521423.38031-.827637.291382-.47937-.139221-.961426-.269958-1.031616-.947449-.029358-.283325-.253845-.159729-.310974.097961-.036072.162537-.093628.309814-.282715.087463-.178894-.210266-.360291-.449707-.595032-.570984-.176331-.091064-.601135-.085693-.637268-.002563-.28009.645142-.687317.46283-1.147827.270935-.114197-.047607-.294617.064026-.444702.102051-.294678.074707-.595703.22998-.882812.207458-.669434-.052368-1.217896.953247-1.947266.210693-.022583.032898-.044434.066345-.067871.098633-.302612.417419-.724304.200623-1.098389.19104-.230103-.00592-.524231-.2005-.675659-.113037-.588745.340088-1.187256.088806-1.720947-.000549-1.475525-.247009-2.905518-.706116-4.401489-.923035-1.216553-.176453-2.425964-.360535-3.650574-.361938-.643799-.000732-1.229065-.010681-1.76239-.44873-.175903-.144409-.683716-.213501-.726135-.138794-.295837.52063-.769531.382385-1.171143.348572-1.122864-.094482-2.242859-.2323-3.359619-.384705-.544739-.07428-1.072327-.317993-1.586914-.421631-.843689-.169983-1.700317-.651123-2.638062-.203674-.238037.113586-.642151-.124329-.970886-.196228-.789551-.172729-1.601868-.587036-2.2948.241455-.060791.072693-.331604.094238-.348572.060608-.324524-.642944-.698547.104614-1.030579-.045959-.338379.745605-1.049805.382507-1.253601.14093-.39978-.473816-.850281-.296387-1.280273-.406982-.723328-.186035-1.506165.00708-2.198792-.464783-.367371-.250305-.85437-.271179-1.339417.02002-.304749.182922-.914062.301941-1.113708.13092-.539917-.462402-.84314-.370972-1.169189.169189-.032349.053589-.166992.109924-.204468.086304-.609314-.384888-1.418884.14563-2.012878-.480286-.173035-.182312-.825989-.21875-.959412-.063965-.269836.31311-.442505.27771-.778442.187073-1.630127-.439941-3.231567-1.025757-4.958069-1.02179-.182495.000427-.350403-.294922-.55127-.342529-.514282-.121948-1.069885-.108582-1.559204-.286377-.499817-.181641-.815369-.741272-1.424377-.771851-.395447-.019836-.811157-.01178-1.177124-.135925-.345581-.117188-.595459.015503-.902222.067139-.557983.093994-.584961.776306-1.155945.882385-.218689.040588-.3974.282043-.681519.100708-.164734-.105103-.39679-.127075-.528442-.257324-.370422-.366516-.754578-.440308-1.286255-.394714-.530884.045532-.856628.276855-1.207458.600586-.356689.329163-.884094.542358-1.274719.353577-.330566-.15979-.518738-.165649-.845337-.08252-.263977.067139-.893372.30603-.645203-.475281.001038-.003235-.239502-.134033-.349731-.113098-.494568.093994-1.03009.215332-1.486206.189453-.521484-.029663-1.054749-.120483-1.594666-.130432-.548401-.010132-1.094299-.120422-1.643188-.1474-.716858-.035278-1.406494-.143738-2.03656-.514038-.09491-.055786-.274353-.13446-.31073-.098206-.595032.592834-.938171-.03363-1.378662-.248657-.136719-.066772-.371521-.033447-.518799.039795-.640991.31897-.706543.367798-1.182312-.145996-.414734-.447876-.846558-.478577-1.397644-.408569-.921692.117065-1.726257.511169-2.51947.939819-.227234.122803-.380127.196289-.642273.06366-.848938-.429443-1.570251.336853-2.390137.29834-.411865-.019348-.143616.354431-.237244.529907-.129211.242188-.722595-.195618-.57135.407776.002502.010132-.068176.058533-.099731.054077-.349854-.049316-.707642-.179871-1.045532-.139465-.35553.04248-.793762.451843-1.01709.340942-.629822-.312683-1.061951.034302-1.565308.223572-.37677.141663-.870728.699585-1.024048-.232727-.004272-.026184-.28186-.058289-.395996-.007141-.628113.281372-1.391235-.013489-1.974365.465088-.022949.018799-.17157-.086731-.239441-.156067-.627014-.640503-1.480286-.945618-2.182129-1.478271-.48175-.365662-1.025696.287781-1.53656-.023376-.009888.035095-.039368.080872-.026855.103699.312622.571533-.220215.606262-.479187.604126-.349121-.00293-.480103.267456-.436279.397949.159363.474487-.13092.4104-.408203.438965-.442932.045654-.92688-.483337-1.330811.092468-.240906-.17804-.66803.010925-.786926-.420166-.136841-.496033-.312378-.57959-.700623-.133057-.293335.337402-.454529.241089-.678406-.25946-.034851-.077881-.114868-.21405-.138672-.206848-.558044.16925-1.127197.49469-1.582947-.189453-.653687.321289-1.214172-.58844-1.877319-.142151-1.22937-.542786-2.559509-.235229-3.828003-.451416-.254211-.043335-.428284.005981-.510925.332092-.193909.764709-.278015.833801-1.079468.493652-.392761-.166687-.451599.606323-.802856.168274-.09082.106079-.19519.20343-.270081.319763-.273132.424255-.755859.579102-1.20874.332886-.230957-.12561-.310974-.205627-.533875.088562-.376709.497192-.521484.47876-1.48175.508118-.068787.002075-.138794.040955-.204102.071594-.943726.442993-1.263428.467407-2.228088.211365-.218201-.057861-.496765-.153137-.670166-.069946-.848267.407227-1.725525.142334-2.587036.173706-.797363.029053-1.559021-.047546-2.103821-.76593-.159973-.210876-.381714-.251038-.531372.097656-.051758.120544-.404541.250793-.423035.226501-.498291-.653381-1.098511-.409973-1.723877-.266052-.62677.144226-.667542.088135-.97467.755859-.134949.293457-.101868.619934-.597839.548706-.111084-.015991-.235168.276855-.584351.174805-.635559-.185791-1.417603.257324-1.940613.900391-.429504.528015-1.194824.484558-1.542175-.092163-.082153-.136292-.125793-.296814-.213806-.428345-.172241-.257629-.241699-.22113-.48053.13501-.060181.089722-.245117.164734-.351807.143188-.733398-.148376-1.461914-.321655-2.190735-.492249-.3573-.083618-.938843.18634-.896057-.556824.001709-.029419-.154236-.114075-.195984-.092834-.570984.2901-.625-.217529-.763-.517822-.165894-.361145-.30481-.669556-.780334-.412048-.052368.028381-.159668.028503-.200562-.006348-.513-.4375-1.326843-.379456-1.732239-.856262-.488525-.574585-1.171265-.435669-1.699402-.749146-.273071-.16217-.707397-.080688-.780334-.611816-.024353-.177307-.641235-.112793-.745422-.570923-.021851-.095886-.407837-.108948-.625977-.160217l-.021484.033264v10.338928h591.840027v-7.97052Z"/>
</svg>