<?xml version="1.0" encoding="UTF-8"?>
<svg id="Layer_1" data-name="Layer 1" xmlns="http://www.w3.org/2000/svg" version="1.1" viewBox="0 0 319.4136 42.48" preserveAspectRatio="none">
  <defs>
    <style>
      .cls-1 {
        fill: #262626;
        stroke-width: 0px;
      }
    </style>
  </defs>
  <path class="cls-1" d="M319.414612,31.617268c-.045898-.0578-.059631-.164551-.012634-.35144.009827-.039124.010315-.073181.012634-.108154v-.072327c-.016479-.128174-.107117-.193909-.315735-.090576-.210571.104309-.396423.332642-.606079.349731-.483459.039368-.84314.205139-1.241089.508484-.377808.288025-.982605.818359-1.423767-.052734-.036133-.071411-.273376-.134705-.297302-.10498-.572388.709167-1.604858-.312744-2.127686.566162-.024841.041748-.188904.062622-.220154.029358-.521118-.554382-.900085.036987-1.337219.153625-.184326.049255-.424072.163025-.554016.092224-.361572-.196899-.655579-.05304-.871094.160034-.314636.310974-.594482.160645-.942505.132446-.436279-.035339-1.107788-.471924-1.277588.420105-.01123.058899-.146606.15033-.150757.146484-.480896-.44104-1.04248-.04187-1.565613-.138672-.505615-.093506-1.061951.011108-1.581116.108276-.178833.033386-.32074.299744-.465576.471436-.24707.293152-.46991.138916-.736145.014221-.336182-.157532-.693176-.390991-1.039551.047668-.19281.244141-.412476.059692-.632385-.053162-.454041-.232971-.918274.103516-1.387085.041382-.028015-.003723.045898.485046-.316223.370972-.159973-.050354-.279114-.230469-.416748-.351685-.122925.192383-.18634.368774-.524963.229736-.956421-.392578-1.99823-.486328-3.008911-.521667-.508667-.017761-.740173-.79187-1.315369-.36969-.013306.009827-.139465-.085693-.167419-.151428-.324097-.762939-1.2948.029846-1.643372-.679993-.004761-.009644-.195251.032227-.202698.069397-.150696.749084-.698547.418213-1.096252.37677-.314087-.032715-.540405.035339-.752869.246704-.157593.156799-.276978.090149-.340515-.094971-.062073-.180664-.141968-.365112-.152832-.551514-.026001-.44397-.210999-.65918-.678955-.607605-.356262.039246-.720459.015198-1.073853.068176-.351257.052673-.854797.056091-1.005371.27655-.299561.438599-.65155.032532-.921082.203796-.064331.040833-.128357.103821-.159607.171753-.197754.430298-.508545.437317-.954407.429199-.454529-.008301-.770264.026123-.890015-.501526-.016968-.075134-.367126-.164246-.384216-.136536-.318726.516968-.711121.283142-1.082031.115173-.422546-.191406-.680664-.098511-1.029724.250427-.37738.377258-.866821.724182-1.546814.392822-.47052-.229248-1.140869-.307129-1.502258.131226-.607727.737305-1.559692.295349-2.20575.794861-.065125.050354-.257324.010925-.342773-.05188-.501099-.368164-.993958-.447083-1.52356-.05426-.062073.046082-.284485.008484-.301514-.038208-.11969-.327332-.281311-.289856-.542603-.148743-.22998.124329-.500854.199585-.761841.233582-.441162.057373-.85376.09906-1.110474.555542-.070068.124512-.395203.243286-.506714.183777-.588013-.313721-1.076538.455505-1.643616.115967-.036743.071716-.121033.160278-.102478.212402.121216.341248-.059326.441956-.34198.428345-.273926-.013245-.556763-.03363-.816467-.113525-.710022-.218445-1.430786-.423035-2.106567-.724548-.45459-.20282-.815308-.440186-1.27002.003418-.113831.111084-.448669.047241-.661682-.010681-.179321-.048767-.385742-.335388-.482788-.293091-.522034.227356-.987366-.514832-1.307068-.22052-.608826.560425-.685974-.34668-1.136169-.276733-.694031.107849-1.327209-.499878-2.077759-.323792-.103149.02417-.241943-.180542-.381042-.220093-.757996-.215454-1.52124-.412292-2.282654-.61554-.346924.486084-.875183.215698-1.293396.237183-.448486.02301-.969788-.486877-1.205566.325317-.011414.039368-.149048.080994-.208191.061523-.576111-.189697-1.212219.409119-1.77655-.150391-.095337-.094482-.379944.018616-.575012.00531-.992065-.06781-1.98761-.112976-2.972839-.237488-.349976-.04425-.453674.014526-.61731.322998-.209167.394409-.778381.49408-.975586.146362-.443481-.782043-.983765-.333008-1.506775-.262939-.219849.02948-.471008.153748-.652222.085999-.733276-.27417-1.228577-.244446-1.871948.175964-.119507.078125-.323608.165405-.421326.115784-.684326-.347534-1.277893.296631-1.945862.172607-.057739-.010742-.160828.366211-.502625.206787-.160645-.07489-.482239.099487-.686157.23053-.700745.450256-.69104.458313-1.38739.043457-.08136-.048462-.281677-.064514-.293518-.037415-.1922.440002-.31543.333679-.659607.073792-.301514-.2276-.841675-.308899-1.223999-.222595-.69751.15741-1.335144-.029236-1.955811-.200684-.433105-.119568-.765503-.382874-1.305725-.301453-.50885.076782-1.159485-.065002-1.587891-.350464-.598877-.39917-1.115479.114746-1.649597-.062866-.075378-.025024-.149841-.052856-.224304-.080444-.617493-.228882-1.190308-.633789-1.914368-.429321-.13269.037476-.306946-.066833-.460754-.110046-.698425-.19635-1.410889-.354309-2.090881-.60144-.881104-.320251-1.776917.115662-2.653015-.11554-.092529-.024414-.227356.059814-.326233.120361-.344666.211182-.659973.638184-1.088135.11438-.008606-.010559-.194641.089905-.26355.16864-.240845.275146-.466431.303833-.661011-.03064-.147461-.25354-.30072-.183105-.484985-.058228-.056763.038452-.142029.034912-.214233.050537-.068848-.449646-.237793-.442688-.519897-.135864-.042114.045776-.270081-.007935-.350464-.082214-.244629-.226196-.466919-.161926-.763733-.096741-.626038.137512-.992004.833679-1.701294.747925-.544495.732727-1.306091.635193-2.049011.493713-.285889-.054443-.467407-.129395-.734863.119568-.155762.144958-.765564-.048645-.802307.049011-.164551.436951-.487915.093567-.670898.209106-.453491.286316-.373657-.24939-.572571-.333496-.152954-.064575-.406006-.15033-.488586-.079651-.407227.348694-.866821.157837-1.302002.18927-.183655.013245-.520996-.032654-.530884.009155-.162476.688293-.770752.421143-1.118591.433167-.483765.016724-.910889-.01178-1.30896.329346-.127991.109741-.377869.077271-.57196.109802l-1.255127.574402c-.390137.383118-.842468.453796-1.286072.149719-.636658-.436401-1.323303-.606445-2.084534-.584229-.201111.005859-.347229-.22699-.619568.003662-.471985.399658-1.060181.502014-1.681091.32605-.40271-.114075-.582275-.015808-.656067.476929-.108459.723877-.417969.937317-1.082886.956421-.354797.010132-.783936.055237-1.051819-.115601-.463562-.295776-.728333-.372803-.968384.213257-.042053.102539-.360657.13031-.550415.127014-.704163-.012268-1.414429-.006897-2.108093-.107056-.225159-.032532-.377014-.442322-.61853-.53833-.153809-.061096-.272095.658875-.641113.146729-.420898.191162-.651184-.49115-1.125977-.214539-.665039.38739-1.377319.297058-2.079651.057922-.286682-.097656-.535583-.139221-.858765.033691-.487854.261047-.589417.203003-1.359863.076355-.103943-.01709-.309937.009766-.310303.021301-.024048.757202-.540283.230408-.814514.323914-.29071.099121-.712219-.011902-.785767.484924-.017273.11676-.252075.317627-.314636.293457-.609436-.235901-.803406.299866-1.164368.554871-.228455.161316-.578613.213013-.427185-.312195.010864-.037659-.223206-.217712-.280273-.191956-.542969.245544-1.074097.5177-1.605103.789124-.832458.425476-1.594421.624268-2.544312.099182-.782043-.432312-1.745667-.634521-2.680603-.185303-.12793.061523-.412109.026001-.482483-.069214-.139282-.188232-.236511-.20166-.324524-.017578-.198181.414734-.494812.285339-.798584.183594-.802368-.268921-1.634277-.255615-2.389465.127869-.302063.153381-.522522.105774-.779724-.025635-.894165-.457031-.871765-.387512-1.771667.062012-.537415.268433-1.218445.246826-1.617493.806824-.901855-.050781-1.753235.459106-2.696533.158936-.693604-.220764-1.413452-.466125-2.189453-.234497-.22345.066711-.667114-.694214-.704834.195068-.000183.005127-.289246.047241-.400635-.010559-.365906-.189819-.664856-.143738-.971375.12854-.347839.309082-.725891.271301-1.112854.037964-.103088-.062195-.314819-.109924-.373169-.054749-.48114.455078-1.038635.29425-1.583618.231384-.424194-.048889-.857849-.20105-1.266357-.147461-.393555.051636-.647461-.892883-1.082275-.126099-.265137-.6875-.730225-.133179-1.098938-.179382-.1521-.019043-.363342-.010681-.441101-.10376-.377502-.452026-.869446-.332764-1.332214-.294434-.392517.032532-.67572-.087097-.954834-.360779-.551941-.541199-.860107-.55835-1.745789-.233276-.143372.052612-.318542.063904-.470337.039856-.480347-.07605-.737854.175964-.721436.596985.020508.524963-.773743-.019531-.644104.550781-.154175.011841-.328003.074951-.458496.024963-.290771-.111267-.661011-.211731-.813293-.440247-.209351-.314209-.283691-.252991-.579407-.116394-.602844.278503-.731934.185425-1.057312-.435303-.272156-.519104-.59613-.639465-1.154663-.360718-.353516.176392-.72406.656433-.993103.594299-.562927-.130066-.826721.104858-1.053528.481873-.211426.351379-.521423.38031-.827637.291382-.47937-.139221-.961426-.269958-1.031616-.947449-.029358-.283325-.253845-.159729-.310974.097961-.036072.162537-.093628.309814-.282715.087463-.178894-.210266-.360291-.449707-.595032-.570984-.176331-.091064-.601135-.085693-.637268-.002563-.28009.645142-.687317.46283-1.147827.270935-.114197-.047607-.294617.064026-.444702.102051-.294678.074707-.595703.22998-.882812.207458-.669434-.052368-1.217896.953247-1.947266.210693-.022583.032898-.044434.066345-.067871.098633-.302612.417419-.724304.200623-1.098389.19104-.230103-.00592-.524231-.2005-.675659-.113037-.588745.340088-1.187256.088806-1.720947-.000549-1.475525-.247009-2.905518-.706116-4.401489-.923035-1.216553-.176453-2.425964-.360535-3.650574-.361938-.643799-.000732-1.229065-.010681-1.76239-.44873-.175903-.144409-.683716-.213501-.726135-.138794-.295837.52063-.769531.382385-1.171143.348572-1.122864-.094482-2.242859-.2323-3.359619-.384705-.544739-.07428-1.072327-.317993-1.586914-.421631-.843689-.169983-1.700317-.651123-2.638062-.203674-.238037.113586-.642151-.124329-.970886-.196228-.789551-.172729-1.601868-.587036-2.2948.241455-.060791.072693-.331604.094238-.348572.060608-.324524-.642944-.698547.104614-1.030579-.045959-.338379.745605-1.049805.382507-1.253601.14093-.39978-.473816-.850281-.296387-1.280273-.406982-.723328-.186035-1.506165.00708-2.198792-.464783-.367371-.250305-.85437-.271179-1.339417.02002-.304749.182922-.914062.301941-1.113708.13092-.539917-.462402-.84314-.370972-1.169189.169189-.032349.053589-.166992.109924-.204468.086304-.609314-.384888-1.418884.14563-2.012878-.480286-.173035-.182312-.825989-.21875-.959412-.063965-.269836.31311-.442505.27771-.778442.187073-1.630127-.439941-3.231567-1.025757-4.958069-1.02179-.182495.000427-.350403-.294922-.55127-.342529-.514282-.121948-1.069885-.108582-1.559204-.286377-.499817-.181641-.815369-.741272-1.424377-.771851-.395447-.019836-.811157-.01178-1.177124-.135925-.345581-.117188-.595459.015503-.902222.067139-.557983.093994-.584961.776306-1.155945.882385-.218689.040588-.3974.282043-.681519.100708-.164734-.105103-.39679-.127075-.528442-.257324-.370422-.366516-.754578-.440308-1.286255-.394714-.530884.045532-.856628.276855-1.207458.600586-.356689.329163-.884094.542358-1.274719.353577-.330566-.15979-.518738-.165649-.845337-.08252-.263977.067139-.893372.30603-.645203-.475281.001038-.003235-.239502-.134033-.349731-.113098-.494568.093994-1.03009.215332-1.486206.189453-.521484-.029663-1.054749-.120483-1.594666-.130432-.548401-.010132-1.094299-.120422-1.643188-.1474-.716858-.035278-1.406494-.143738-2.03656-.514038-.09491-.055786-.274353-.13446-.31073-.098206-.595032.592834-.938171-.03363-1.378662-.248657-.136719-.066772-.371521-.033447-.518799.039795-.640991.31897-.706543.367798-1.182312-.145996-.414734-.447876-.846558-.478577-1.397644-.408569-.921692.117065-1.726257.511169-2.51947.939819-.227234.122803-.380127.196289-.642273.06366-.848938-.429443-1.570251.336853-2.390137.29834-.411865-.019348-.143616.354431-.237244.529907-.129211.242188-.722595-.195618-.57135.407776.002502.010132-.068176.058533-.099731.054077-.349854-.049316-.707642-.179871-1.045532-.139465-.35553.04248-.793762.451843-1.01709.340942-.629822-.312683-1.061951.034302-1.565308.223572-.37677.141663-.870728.699585-1.024048-.232727-.004272-.026184-.28186-.058289-.395996-.007141-.628113.281372-1.391235-.013489-1.974365.465088-.022949.018799-.17157-.086731-.239441-.156067-.627014-.640503-1.480286-.945618-2.182129-1.478271-.48175-.365662-1.025696.287781-1.53656-.023376-.009888.035095-.039368.080872-.026855.103699.312622.571533-.220215.606262-.479187.604126-.349121-.00293-.480103.267456-.436279.397949.159363.474487-.13092.4104-.408203.438965-.442932.045654-.92688-.483337-1.330811.092468-.240906-.17804-.66803.010925-.786926-.420166-.136841-.496033-.312378-.57959-.700623-.133057-.293335.337402-.454529.241089-.678406-.25946-.034851-.077881-.114868-.21405-.138672-.206848-.558044.16925-1.127197.49469-1.582947-.189453-.653687.321289-1.214172-.58844-1.877319-.142151-1.22937-.542786-2.559509-.235229-3.828003-.451416-.254211-.043335-.428284.005981-.510925.332092-.193909.764709-.278015.833801-1.079468.493652-.392761-.166687-.451599.606323-.802856.168274-.09082.106079-.19519.20343-.270081.319763-.273132.424255-.755859.579102-1.20874.332886-.230957-.12561-.310974-.205627-.533875.088562-.376709.497192-.521484.47876-1.48175.508118-.068787.002075-.138794.040955-.204102.071594-.943726.442993-1.263428.467407-2.228088.211365-.218201-.057861-.496765-.153137-.670166-.069946-.848267.407227-1.725525.142334-2.587036.173706-.797363.029053-1.559021-.047546-2.103821-.76593-.159973-.210876-.381714-.251038-.531372.097656-.051758.120544-.404541.250793-.423035.226501-.498291-.653381-1.098511-.409973-1.723877-.266052-.62677.144226-.667542.088135-.97467.755859-.134949.293457-.101868.619934-.597839.548706-.111084-.015991-.235168.276855-.584351.174805-.635559-.185791-1.417603.257324-1.940613.900391-.429504.528015-1.194824.484558-1.542175-.092163-.082153-.136292-.125793-.296814-.213806-.428345-.172241-.257629-.241699-.22113-.48053.13501-.060181.089722-.245117.164734-.351807.143188-.733398-.148376-1.461914-.321655-2.190735-.492249-.3573-.083618-.938843.18634-.896057-.556824.001709-.029419-.154236-.114075-.195984-.092834-.570984.2901-.625-.217529-.763-.517822-.165894-.361145-.30481-.669556-.780334-.412048-.052368.028381-.159668.028503-.200562-.006348-.513-.4375-1.326843-.379456-1.732239-.856262-.488525-.574585-1.171265-.435669-1.699402-.749146-.273071-.16217-.707397-.080688-.780334-.611816-.024353-.177307-.641235-.112793-.745422-.570923-.021851-.095886-.407837-.108948-.625977-.160217l-.021484.033264v10.338928h319.414612v-10.862732Z"/>
</svg>