<?xml version="1.0" encoding="UTF-8"?>
<svg id="Layer_1" xmlns="http://www.w3.org/2000/svg" version="1.1" viewBox="0 0 927 160">
  <!-- Generator: Adobe Illustrator 30.3.0, SVG Export Plug-In . SVG Version: 2.1.3 Build 182)  -->
  <defs>
    <style>
      .st0 {
        fill: #e3ded3;
      }
    </style>
  </defs>
  <path class="st0" d="M131.6,137.18c-5.59-1.12-5.03-9.39-13.44-10.61-12.25-1.13-16.93,15.87-21.15,24.53,0,0-2.07-2.3-2.07-2.3l-1.54-9.18c-4.46-11.78-20.08-3.4-26.72,1.64-2.52,2-3.59,3.92-7.56,4.57,12.23-24.66-8.82-25.08-27.7-22.22-1.87-5.24,8.33-3.51,9.29-14.66.38-4.4-3.03-7.93-6.78-10.62-7.89-5.67-12.77-5.47-18.16-9.9,7.77-2.48,18.3-.97,17.92-12.11-.51-11.66-9.83-16.08-12.21-24.94,28.99,13.59,22.39-13.66,22.8-27.93.96-3.61,5.6,8.82,11.18,9.22,13.89,1.71,17.55-13.22,22.27-23.76,4.93,1.56.84,9.48,5.83,14.52,7.08,7.19,23.09-2.61,31.02-9.89,2.52,3.77-1.64,5.87-2.03,11.72-1.05,20.14,31.49,7.6,31.61,12.49l-5.85,4.17c-1.57,2.74.52,2.94,2.48,3.73,0,0,45.88,0,45.88,0,2.43.57,1.58,1.47,1.51,3.29,0,0-26.65,37.35-26.65,37.35l-10.81,14.28c-2.14,3.5-.26,6.95,3.84,7.16,0,0,21.95-.41,21.95-.41,8.16-.15,9.74-9.36,13.03-7.61.16,4.31-3.43,11.88-4.91,15.8-8.26-2.98-39.08-1.64-48-1.89,0,0-5.35-2.44-5.35-2.44-2.4,7.25-.75,18.75.29,26.02l.03-.02ZM93.1,122.89c6.93-8.1,16.12.22,20.29-8.8,2.02-4.38,5.14-7.4,9.62-9.47,7.07-3.27.31-10.42,7.9-21.29,4.57-6.55-8-12.36-3.19-24.24-4.61-6.45-11.03-5.31-14.27-12.92-4.27-10.03-12.52-2.38-19.85-8.09-8.65-6.74-13.14,2.33-18.59,2.51l-10.82.36c-3.08,6.64-7.06,12.03-14.02,15.23-4.34,2.33.34,11.95-5.06,18.53-2.69,3.28-2.55,7.39-.16,10.75,3,4.21,4.02,8.03,3.2,13.35-1.01,6.6,10.74,6.88,13.56,14.63,3.81,10.46,13.45,2.72,20.48,8.6,3.35,2.81,6.6,2.58,10.93.86h-.02ZM142.1,87.97c.53,2.54,1.65,5.29,3.71,5.84,3.54-5.34,27.28-36.25,29.23-41.59-6.98,1.26-35.36-4.03-37.11,5.8-.62,2.88,19.56,11.54,21.17,12.97-9.69,2.47-19.63,3.68-17,16.98h0ZM560.57,48.25c.65-.28-1.2-2.62-1.99-2.62l-12.69-.05c-.79,0-3.23,1.35-3.01,1.66,1.13,1.79,2.51,5.34,1.94,6.98-1.1,2.09-2.3,10.27-5.51,10.45-3.16-.2-4.23-9.59-5.24-11.64-.97-5.48,7.38-5.56,1.23-7.43,0,0-17.83.1-17.83.1-.45,0-1.17,2.16-.75,2.33,4,1.23,7.73,3.97,9.35,8.18,8.2,21.95,11.31,18.48.25,40.49-3.1-.08-3.39-.23-3.76-2.84,0,0-15.75-39.43-15.75-39.43-.41-4.36.84-4.47,4.21-5.91,1.76-1.56-.19-2.65-1.69-2.92,0,0-19.8.17-19.8.17-.61,0-.78,2.42-.22,2.63,0,0,1.96.76,1.96.76,1.53.59,5.37,2.37,6.06,4.15,0,0,7.51,19.29,7.51,19.29.96,1.02,15.74,43.89,18.5,42.08,1.67.4,10.54-23.1,11.62-24.5,1.25-2.25,3.58-2.32,4.84-.1,0,0,8.05,22.33,8.05,22.33,1.35,2.86,3.37,2.91,4.74-.03,0,0,27.51-59.6,27.51-59.6,1.58-2.4,6.48-3.79,8.66-5.69,0-2.65-19.27-1.03-20.8-1.49-.8,0-3,1.3-3.44,1.82l6.94,3.05c2.24,6.22-6.39,19.54-8.47,25.24-1.29,1.86-7.82,21.03-10.66,21.05-.55.17-1.71-1.11-1.94-1.68-1.78-5.72-9.07-17.87-6.16-24.05,0,0,9.54-19.88,9.54-19.88.02,0,6.79-2.87,6.8-2.9ZM255.59,84.53c-.69,40.06-60.28,40.06-60.96,0,.69-40.06,60.28-40.06,60.96,0ZM241.86,71.37c-5.06-9.71-18.02-12.89-27.17-6.95-11.23,7.29-11.88,28.54-2.45,39.57,19.91,16.22,41.12-12.56,29.62-32.62h0ZM863.97,94.51l-.24-29c-1.24-6.39,11.65-7.18,5.4-9.8,0,0-15.9-.1-15.9-.1-.88,0-3,1.94-2.37,2.29,2.55,1.57,7.01,3.17,7.1,6.46,0,0-.1,30.24-.1,30.24-5.5.82-9.93-7.9-13.17-10.97-5.56-5.57-21.28-24.12-26.58-30.41-1.73-.1-2.6-1.01-3.19,1.44,0,0,.04,49.92.04,49.92-.51,5.65-7.1,4.54-7.04,8.72,1.66-.46,20.61,1.48,20.73-1.28-1.75-2.04-7.09-3.81-7.49-6.47.02-7.34,0-26.05-.41-33.16,2.41.09,4.51.73,5.88,2.27,4.44,5.06,30.6,34.25,34.07,38.82,1.99,1.54,2.47.63,2.96-1.33.16-4.19.48-13.55.31-17.65h0ZM291.46,113.5l-29.54-.06-1.77-.94c-1.65-.88,6.53-2.57,6.58-9.99l.22-35.04c.03-4.53-3.05-8.25-6.57-9.27-.84-.27.74-2.45,1.6-2.47,6.95.09,21.25-.95,27.95-.52,38.6.77,37.33,53.65,1.53,58.28h0ZM292.92,107.25c18.96-2.23,21.3-27.11,11.87-39.68-6.14-7.38-18.22-6.09-26.92-6.68-1.34-.06-3.03,3.06-3.03,4.7v36.84c0,1.17,1.47,4.33,2.47,4.9,4.08.38,10.94.53,15.62-.09h-.01ZM803.98,84.58c-.68,40.08-60.3,40.07-60.98,0,.68-40.08,60.3-40.07,60.98,0ZM792.11,98.29c15.75-37.53-30.28-54.56-39.3-21.65-8.06,28.45,24.8,46.57,39.3,21.65ZM606.9,85.39c4.23-.4,7.68,1.44,11.19,4.62,2.24-4.42,2.45-10.3-.49-14.51-.97.9-3.68,3.8-5.13,3.8l-12.47.04c.53-17.78-5.11-19.04,15.53-17.75,2.62.59,4.82,4.46,6.67,6.17.39.43,2.38-1.15,2.37-1.72-.4-2.02,1.02-10.78-2.28-11.14,0,0-2.46.7-2.46.7h-32.02c-.34.05-2.64,2.06-2.03,2.42,2.34,1.25,5.87,3.32,6.12,6.37,0,0,0,40.25,0,40.25-.25,3.65-4.61,5.36-6.98,7.39-1.68,2.82,38.19.96,38.67,1.51l4.68-12.01c-3.87-.38-4.33,2.22-6.69,3.99-4.59,3.47-21.68,3.21-21.7-.73l-.11-18.73s7.11-.67,7.13-.67ZM711.18,110.4c2.2,1.41,4.34,1.64.15,3.04,0,0-17.09,0-17.09,0-6.85-2.12,4.36-2.14,4.64-8.82,0,0,.06-39.19.06-39.19.01-6.84-7.77-5.74-6.53-9.41,6-.28,20.6-1.01,26.42-.55,29.08,3.24,19.48,41.8-12.02,34.94l-.06,14.41c0,2.04,2.52,4.5,4.43,5.58ZM716.56,86.01c8.64-1.13,12.57-7.7,11.24-15.66-1.04-8.67-13.78-12.44-20.41-7.21,0,0-.43,21.92-.43,21.92,3.4,1.03,6.3,1.37,9.59.94h.01ZM672.44,105.08c2.03,6.31-8.82,6.32-2.17,8.35,0,0,16.11.02,16.11.02.49,0,2.1-1.08,2.51-1.35.72-.47-6.42-2.62-9.67-11.03l-18.15-46.95c-10.47,9.7-18.56,51.19-32.24,57.89.21,3,18.77.74,20.56,1.19.48-2.35-2.64-3.28-4.77-4-4.19-5.49,9.59-28.24,10.96-34.07,1.19-2.61,3.03-4.02,5.24-1.23,0,0,11.63,31.2,11.63,31.2v-.02ZM393.22,105.52c1.42,5.76-8.47,6.18-1.89,7.91,1.74-.43,18.13,1.22,18.46-1.42-2.85-2.35-7.07-4.06-8.69-7.76-4.92-10.33-14.34-41.45-20.58-50.65,0,0-11.61,25-11.61,25l-11.65,26.39c-1.43,3.29-4.51,5.07-7.31,6.94-.4.27,1.79,1.59,2.39,1.58l17.95-.29c-.59-2.76-2.52-3.05-4.73-3.93-4.27-6.33,9.87-29.53,11.47-35.9.34-.79,3.5-1.32,3.84-.58l1.59,3.47s10.74,29.24,10.76,29.24ZM423,66.7c8.32-9.28,26.41-10.94,33.21.6,13.1-13.11-10.11-13.52-18.63-13.08-9.79,1.25-18.82,5.2-24.41,13.83-12.52,18.47-.1,44.39,21.71,46.49,11.32,1.65,22.8.78,23.7-8.81-.06-3.02-.27-2.95-2.76-2.3-6.37,11.01-28.18,6.87-34.94-4-6.16-9.9-5.81-23.81,2.13-32.74h-.01ZM911.18,100.15c1.21-21.93-30.68-15.87-26.15-33.95,1.74-6.97,17.3-9.13,19.36-1.23.5,1.88,1.39,3.73,2.93,1.47.34-2.62,1.78-7.48.35-9.86-4-4.91-20.36-2.36-26.05,3.76-6.21,6.68-5.13,18.85,3.7,23.73,6.21,4.39,21.72,7.87,18.16,18.41-2.33,7.01-14.05,9.12-21.04,4.84-2.04-2.2-.97-4.37-3.96-5.86-.33-.16-1.54,1.3-1.53,1.67l.13,9.89c14.36,5.45,32.98.29,34.08-12.87h.02ZM345.92,111.96c1.37-1.28-4.05-1.53-6.24-5.3v-42.24c.56-5.58,7.64-4.81,6.68-8.53l-19.11-.36c-.9-.02-3.18,2.11-2.51,2.44,2.71,1.21,6.24,2.87,6.25,6.4,0,0,0,40.32,0,40.32,0,5.44-6.34,5.19-6.09,6.43l.44,2.25,18,.05c.67,0,2.17-1.08,2.58-1.46ZM664.31,96.36l-5.63-8.55c-8.75,7.81-7.02,11.76-.52,20.43,3.19-4.45,4.8-7.35,6.15-11.88ZM385.14,97.42l-6.18-10.01c-2.91,3.71-5.21,7.37-6.08,10.49l5.96,10.74c3.6-5.25,4.28-6.83,6.3-11.23h0ZM98.08,94.39c18.08-13.8-3.32-40.97-20.78-26.86-17.19,13.07,2.95,40.24,20.78,26.86Z"/>
</svg>
